<svg xmlns="http://www.w3.org/2000/svg" xmlns:xlink="http://www.w3.org/1999/xlink" width="348" height="209.214" viewBox="0 0 348 209.214">
  <defs>
    <radialGradient id="radial-gradient" cx="0.5" cy="0.5" r="0.5" gradientUnits="objectBoundingBox">
      <stop offset="0" stop-color="#d66dbc"/>
      <stop offset="1" stop-color="#c469d3"/>
    </radialGradient>
  </defs>
  <g id="_8244_Dönüştürülmüş_" data-name="8244 [Dönüştürülmüş]" transform="translate(-0.02 -0.001)">
    <g id="Layer_1" data-name="Layer 1" transform="translate(0.02 0.001)">
      <path id="Path_536" data-name="Path 536" d="M289.426,123.521c53.3-3.093,109.181,13.017,100.968,36.37s43.916-8.295,64.722.125c14.811,5.994,8.891,24.243,16.055,31.6,16.431,16.855,33.232-4.371,54.139,8.367s-21.9,131.626-43.744,132.289L232.43,330.759l-17.879-1.607s-49.456-27.049-14.078-52c23.921-16.869,6.709-29.118,4.107-36.842-2.987-8.867-9.957-24.351,20.411-35.716s22.528-36.091,21.78-41.211S236.132,126.613,289.426,123.521Z" transform="translate(-182.908 -123.141)" fill="#d969d1" opacity="0.1"/>
      <path id="Path_537" data-name="Path 537" d="M476.141,1124.391c-5.731-8.543-7.118-19.058-7.271-26.375a70.527,70.527,0,0,1,1.051-14l-.4-.127a70.964,70.964,0,0,0-1.062,14.095c.155,7.39,1.558,18.011,7.36,26.661Z" transform="translate(-430.174 -969.375)" fill="#3c8f7c"/>
      <path id="Path_538" data-name="Path 538" d="M466.539,1037.562a6.036,6.036,0,0,1-1.863,4.3,7.08,7.08,0,0,1-1.516-4.713,6.028,6.028,0,0,1,1.863-4.3A7.076,7.076,0,0,1,466.539,1037.562Z" transform="translate(-425.512 -924.418)" fill="#3c8f7c"/>
      <path id="Path_539" data-name="Path 539" d="M433.493,1087.694a7.07,7.07,0,0,1,1.083,4.828,6.118,6.118,0,0,1-3.794-2.784,7.069,7.069,0,0,1-1.082-4.829A6.112,6.112,0,0,1,433.493,1087.694Z" transform="translate(-395.981 -970.273)" fill="#3c8f7c"/>
      <path id="Path_540" data-name="Path 540" d="M413.574,1143.363a6.746,6.746,0,0,1,2.91,3.9,5.22,5.22,0,0,1-4.4-.642,6.739,6.739,0,0,1-2.91-3.9A5.228,5.228,0,0,1,413.574,1143.363Z" transform="translate(-377.963 -1020.987)" fill="#3c8f7c"/>
      <ellipse id="Ellipse_11" data-name="Ellipse 11" cx="1.771" cy="3.422" rx="1.771" ry="3.422" transform="matrix(0.568, -0.823, 0.823, 0.568, 31.925, 130.279)" fill="#3c8f7c"/>
      <path id="Path_541" data-name="Path 541" d="M473.07,1132.848a4.483,4.483,0,0,1,3.9-.374,5.056,5.056,0,0,1-2.33,3.362,4.483,4.483,0,0,1-3.9.374A5.056,5.056,0,0,1,473.07,1132.848Z" transform="translate(-432.194 -1011.919)" fill="#3c8f7c"/>
      <path id="Path_542" data-name="Path 542" d="M473.291,1172.267a4.481,4.481,0,0,1,3.9-.374,5.051,5.051,0,0,1-2.33,3.361,4.48,4.48,0,0,1-3.9.375A5.062,5.062,0,0,1,473.291,1172.267Z" transform="translate(-432.388 -1046.64)" fill="#3c8f7c"/>
      <path id="Path_543" data-name="Path 543" d="M233.671,1485.561c-12.014-4.374-20.417-14.807-25.35-22.79a85.562,85.562,0,0,1-7.92-16.471l-.53.211a86.187,86.187,0,0,0,7.972,16.589c4.981,8.061,13.469,18.594,25.634,23.028Z" transform="translate(-193.61 -1288.588)" fill="#96d9c9"/>
      <path id="Path_544" data-name="Path 544" d="M170.589,1394.1a8.68,8.68,0,0,1,.7,6.437,7.517,7.517,0,0,1-4.774-3.877,8.678,8.678,0,0,1-.7-6.436A7.507,7.507,0,0,1,170.589,1394.1Z" transform="translate(-163.329 -1239.192)" fill="#96d9c9"/>
      <path id="Path_545" data-name="Path 545" d="M153.434,1484.973a7.661,7.661,0,0,1,4.364,4.393,7.322,7.322,0,0,1-6.086.29,7.658,7.658,0,0,1-4.361-4.393A7.322,7.322,0,0,1,153.434,1484.973Z" transform="translate(-147.35 -1322.188)" fill="#96d9c9"/>
      <ellipse id="Ellipse_12" data-name="Ellipse 12" cx="5.646" cy="2.479" rx="5.646" ry="2.479" transform="translate(1.433 170.796) rotate(-8.11)" fill="#96d9c9"/>
      <ellipse id="Ellipse_13" data-name="Ellipse 13" cx="5.646" cy="2.479" rx="5.646" ry="2.479" transform="translate(5.668 177.686) rotate(-8.11)" fill="#96d9c9"/>
      <path id="Path_546" data-name="Path 546" d="M240.048,1476.483a8.481,8.481,0,0,1,2.365-5.483,7.342,7.342,0,0,1,1.755,5.406,8.489,8.489,0,0,1-2.364,5.483A7.368,7.368,0,0,1,240.048,1476.483Z" transform="translate(-228.987 -1310.344)" fill="#96d9c9"/>
      <path id="Path_547" data-name="Path 547" d="M277.2,1536a8.506,8.506,0,0,1,2.284-5.522,7.327,7.327,0,0,1,1.836,5.371,8.5,8.5,0,0,1-2.284,5.521A7.322,7.322,0,0,1,277.2,1536Z" transform="translate(-261.719 -1362.734)" fill="#96d9c9"/>
      <path id="Path_548" data-name="Path 548" d="M291.135,1664.147a2.967,2.967,0,0,1,2.583-.119,3.423,3.423,0,0,1-1.685,2.132,2.968,2.968,0,0,1-2.583.119A3.418,3.418,0,0,1,291.135,1664.147Z" transform="translate(-272.513 -1480.153)" fill="#96d9c9"/>
      <path id="Path_549" data-name="Path 549" d="M342.889,1252.264s9.339-20.62,6.217-25.221c-4.315-6.358-9.681,13.153-9.942,11.443-2.471-16.2-1.955-36.622-13.512-39.718-6.57-1.76.435,15.257-.381,19.638s-11.745-11.267-18.475-19.548-10.853-3.713-6.951,6.334c3.774,9.714,17.442,21.1,14.382,22.071s-20.216-12.558-22.8-7.571c-3.171,6.115,23.258,16.909,20.607,18.127s-15.242-4.508-15.242.358,17.4,6.089,16.945,8.195c-.732,3.41-11.661-5.321-12.515-.589-.873,4.839,14.835,5.206,14.287,8.992-.315,2.175-4.272-.1-4.987,2.889-1.632,6.82,23.124,16.376,23.124,16.376Z" transform="translate(-274.019 -1066.859)" fill="#3c8f7c"/>
      <path id="Path_550" data-name="Path 550" d="M650.675,1716.072c3.758,1.76,2.741,6.132,2.741,6.132s10.189-7.956,14-3.312,1.807,13.746-2.66,15.226-43.324.442-43.324.442S647.295,1714.488,650.675,1716.072Z" transform="translate(-564.923 -1526.126)" fill="#96d9c9"/>
      <path id="Path_551" data-name="Path 551" d="M535.63,1454.509l.358-.308c-8.164-9.944-11.65-22.408-13.136-31.118a86.045,86.045,0,0,1-1.284-16.7l-.5-.089a86.944,86.944,0,0,0,1.29,16.806C523.862,1431.882,527.38,1444.457,535.63,1454.509Z" transform="translate(-476.502 -1253.347)" fill="#50bfa5"/>
      <path id="Path_552" data-name="Path 552" d="M504.778,1352.8a6.607,6.607,0,0,1-1.386,5.192,9.634,9.634,0,0,1-2.6-5.547,6.609,6.609,0,0,1,1.386-5.192A9.634,9.634,0,0,1,504.778,1352.8Z" transform="translate(-458.618 -1201.344)" fill="#50bfa5"/>
      <path id="Path_553" data-name="Path 553" d="M471.787,1412.362a9.424,9.424,0,0,1,2.116,5.7,8.288,8.288,0,0,1-4.887-3.162,9.42,9.42,0,0,1-2.116-5.7A8.29,8.29,0,0,1,471.787,1412.362Z" transform="translate(-428.812 -1255.91)" fill="#50bfa5"/>
      <path id="Path_554" data-name="Path 554" d="M458.38,1478.983a9.448,9.448,0,0,1,4.062,4.529,6.147,6.147,0,0,1-5.209-.588,9.437,9.437,0,0,1-4.063-4.523A6.134,6.134,0,0,1,458.38,1478.983Z" transform="translate(-416.718 -1316.56)" fill="#50bfa5"/>
      <path id="Path_555" data-name="Path 555" d="M508.56,1566.172a3.934,3.934,0,0,1,1.824,1.778,2.514,2.514,0,0,1-2.18-.076,3.933,3.933,0,0,1-1.824-1.778A2.514,2.514,0,0,1,508.56,1566.172Z" transform="translate(-463.586 -1393.917)" fill="#50bfa5"/>
      <path id="Path_556" data-name="Path 556" d="M516.99,1596.941a3.934,3.934,0,0,1,1.825,1.78,2.519,2.519,0,0,1-2.18-.077,3.935,3.935,0,0,1-1.825-1.779A2.527,2.527,0,0,1,516.99,1596.941Z" transform="translate(-471.011 -1421.019)" fill="#50bfa5"/>
      <path id="Path_557" data-name="Path 557" d="M530.325,1463.133a4.871,4.871,0,0,1,4.447-.6,5.235,5.235,0,0,1-2.1,4.093,4.87,4.87,0,0,1-4.447.6A5.238,5.238,0,0,1,530.325,1463.133Z" transform="translate(-482.831 -1302.641)" fill="#50bfa5"/>
      <path id="Path_558" data-name="Path 558" d="M537.627,1510.033a4.868,4.868,0,0,1,4.446-.6,5.235,5.235,0,0,1-2.1,4.093,4.873,4.873,0,0,1-4.447.6A5.235,5.235,0,0,1,537.627,1510.033Z" transform="translate(-489.261 -1343.951)" fill="#50bfa5"/>
      <path id="Path_559" data-name="Path 559" d="M547.833,1580.02a3.194,3.194,0,0,1,2.9-.392,3.407,3.407,0,0,1-1.365,2.665,3.189,3.189,0,0,1-2.894.392A3.407,3.407,0,0,1,547.833,1580.02Z" transform="translate(-498.897 -1405.866)" fill="#50bfa5"/>
      <path id="Path_560" data-name="Path 560" d="M380.318,1723.218s-11.935-15.322-16.925-17.67c-5.316-2.5-.707,6.167-.707,6.167s-11.366-11.166-14.036-8.378.181,5.4.181,5.4-9.519-1.768-10.906,1.8c-2.132,5.483,13.522,8.2,13.522,8.2s-7.491-1.648-6,1.746C347.713,1725.6,380.318,1723.218,380.318,1723.218Z" transform="translate(-315.034 -1514.594)" fill="#50bfa5"/>
      <path id="Path_561" data-name="Path 561" d="M339.42,1708.759c1.387-3.565,10.906-1.8,10.906-1.8s-2.851-2.613-.181-5.4,11.568,3.8,11.568,3.8-1.379-6.052,5.3-1.291c4.775,3.4,13.989,16.083,13.989,16.083Z" transform="translate(-316.526 -1512.821)" fill="#96d9c9"/>
      <path id="Path_562" data-name="Path 562" d="M621.45,1623.609s19.016,1.344,22.721-2.061.029-9.574.029-9.574,6.526-5.159,6.425-8.527-4.354-1.659-4.354-1.659,7.206-9.278,5.5-11.043c-3.184-3.286-11.515,6.358-11.515,6.358s2.473-4.588-.136-5.316c-3.933-1.1-6.826,10.216-6.826,10.216s.733-4.469-1.977-3.875C626.447,1599.192,621.45,1623.609,621.45,1623.609Z" transform="translate(-564.94 -1415.214)" fill="#50bfa5"/>
      <path id="Path_563" data-name="Path 563" d="M594.842,1522.371H593.25l5.932-30.821,1.323.251Z" transform="translate(-522.541 -1313.767)" fill="#0e2e35"/>
      <path id="Path_564" data-name="Path 564" d="M2122.888,1379.576l1.535-3.722a5.231,5.231,0,0,1,6.808-2.92h0c6.473,2.836,9.288,10.727,6.286,17.626l-2.195,5.046a6.351,6.351,0,0,0,.67,6.355,5.618,5.618,0,0,1,.553,5.6l-1.157,2.66a10.555,10.555,0,0,1-6.581,5.891,6.4,6.4,0,0,0-3.973,3.6l-1.639,3.767a7.958,7.958,0,0,1-10.351,4.44l-2.227-.985a8.008,8.008,0,0,1-3.793-10.636h0c2.929-4.978,2.695-8.693,1.657-11.213a15.124,15.124,0,0,1,.143-11.763l.231-.532a14.936,14.936,0,0,1,9.113-8.276C2119.738,1383.956,2121.585,1382.576,2122.888,1379.576Z" transform="translate(-1872.631 -1223.61)" fill="#50bfa5"/>
      <path id="Path_565" data-name="Path 565" d="M2012.86,1577.994c3.141-4.087,20.6-25.792,31.825-29.441,12.4-4.028.715,11.968.715,11.968s21.994-24.132,30.066-21.957c7.4,1.994,0,16.953,0,16.953s8.333-8.284,18.438-8.284c9.834,0-6.829,30.117-7.73,31.69Z" transform="translate(-1790.503 -1369.733)" fill="#96d9c9"/>
      <path id="Path_566" data-name="Path 566" d="M2419.734,1420.074a149.429,149.429,0,0,0-19.283,47.043l-.89-.011a151.885,151.885,0,0,1,19.482-46.807c2.085-3.269,4.336-7.152,8.241-8.423.075-.024.1.091.032.119C2423.749,1413.342,2421.684,1417.013,2419.734,1420.074Z" transform="translate(-2131.111 -1258.264)" fill="#3c8f7c"/>
      <path id="Path_567" data-name="Path 567" d="M2424.17,1598.116a182.665,182.665,0,0,1,36.879-37.525c.144-.11.34.144.194.256a180.757,180.757,0,0,0-36.154,37.276Z" transform="translate(-2152.787 -1389.232)" fill="#3c8f7c"/>
      <path id="Path_568" data-name="Path 568" d="M2570.678,1386.29a6.429,6.429,0,0,1,1.377,2.4,4.958,4.958,0,0,1,.044,2.449,5.326,5.326,0,0,0,1.365-2.371,5.241,5.241,0,0,0-.416-4.02c-.953-1.467-2.605-1.616-2.926-.9A2.844,2.844,0,0,0,2570.678,1386.29Z" transform="translate(-2281.235 -1233.213)" fill="#3c8f7c"/>
      <path id="Path_569" data-name="Path 569" d="M2558.207,1490.5a6.417,6.417,0,0,0-2.365-1.43,4.962,4.962,0,0,0-2.441-.092,5.315,5.315,0,0,1,2.39-1.323,5.2,5.2,0,0,1,4,.5c1.443.98,1.559,2.645.844,2.954C2559.921,1491.435,2558.972,1490.982,2558.207,1490.5Z" transform="translate(-2266.614 -1324.852)" fill="#3c8f7c"/>
      <path id="Path_570" data-name="Path 570" d="M2530.987,1536.71a6.415,6.415,0,0,0-2.365-1.43,4.969,4.969,0,0,0-2.441-.093,5.33,5.33,0,0,1,2.384-1.323,5.2,5.2,0,0,1,4,.5c1.444.981,1.559,2.645.844,2.954C2532.7,1537.646,2531.752,1537.193,2530.987,1536.71Z" transform="translate(-2242.638 -1365.554)" fill="#3c8f7c"/>
      <path id="Path_571" data-name="Path 571" d="M2628.077,1643.92a6.408,6.408,0,0,0-2.366-1.43,4.965,4.965,0,0,0-2.44-.093,5.326,5.326,0,0,1,2.384-1.323,5.2,5.2,0,0,1,4,.5c1.443.98,1.559,2.645.844,2.954C2629.793,1644.856,2628.84,1644.4,2628.077,1643.92Z" transform="translate(-2328.156 -1459.985)" fill="#3c8f7c"/>
      <path id="Path_572" data-name="Path 572" d="M2677.677,1600.082a6.4,6.4,0,0,0-2.365-1.43,4.97,4.97,0,0,0-2.441-.093,5.327,5.327,0,0,1,2.384-1.323,5.2,5.2,0,0,1,4,.5c1.444.981,1.559,2.646.844,2.955C2679.392,1601.016,2678.442,1600.563,2677.677,1600.082Z" transform="translate(-2371.844 -1421.372)" fill="#3c8f7c"/>
      <path id="Path_573" data-name="Path 573" d="M2530.342,1438.394a6.4,6.4,0,0,1,1.738,2.154,4.972,4.972,0,0,1,.428,2.413,5.358,5.358,0,0,0,.976-2.557,5.246,5.246,0,0,0-1.044-3.9c-1.167-1.3-2.826-1.184-3.031-.43C2529.182,1436.819,2529.76,1437.7,2530.342,1438.394Z" transform="translate(-2245.438 -1279.083)" fill="#3c8f7c"/>
      <path id="Path_574" data-name="Path 574" d="M2486.325,1486.686a5.481,5.481,0,0,1,2.5,1.654,4.29,4.29,0,0,1,.848,2.5,7.133,7.133,0,0,0,.953-3.276c.1-1.727-.923-3.567-1.824-3.907-1.669-.954-3.8-.1-3.976.827C2484.633,1485.43,2485.488,1486.163,2486.325,1486.686Z" transform="translate(-2206.191 -1321.128)" fill="#3c8f7c"/>
      <path id="Path_575" data-name="Path 575" d="M2441.869,1565.039a5.563,5.563,0,0,1,2.751,1.208,4.3,4.3,0,0,1,1.255,2.329,7.085,7.085,0,0,0,.391-3.389c-.192-1.72-1.508-3.361-2.453-3.545-1.8-.652-3.764.541-3.782,1.486C2439.99,1564.086,2440.957,1564.664,2441.869,1565.039Z" transform="translate(-2166.757 -1390.017)" fill="#3c8f7c"/>
      <path id="Path_576" data-name="Path 576" d="M2571.757,1626.488a4.6,4.6,0,0,1,1.948,1.489,3.489,3.489,0,0,1,.546,2.088,5.794,5.794,0,0,0,.962-2.609c.179-1.4-.548-2.955-1.262-3.284-1.3-.865-3.087-.3-3.282.446C2570.45,1625.369,2571.106,1626.015,2571.757,1626.488Z" transform="translate(-2281.786 -1444.874)" fill="#3c8f7c"/>
      <path id="Path_577" data-name="Path 577" d="M2624.481,1412.33a3.844,3.844,0,0,0-1.336-.954,2.906,2.906,0,0,0-1.44-.162,3.145,3.145,0,0,1,1.471-.678,3.09,3.09,0,0,1,2.343.47c.812.644.807,1.634.371,1.788A1.708,1.708,0,0,1,2624.481,1412.33Z" transform="translate(-2326.777 -1257.037)" fill="#3c8f7c"/>
      <path id="Path_578" data-name="Path 578" d="M2623.837,1381.488a3.818,3.818,0,0,1-.067,1.642,2.922,2.922,0,0,1-.752,1.242,3.07,3.07,0,0,0,1.43-.755,3.113,3.113,0,0,0,1.06-2.145c-.012-1.037-.8-1.639-1.182-1.384A1.716,1.716,0,0,0,2623.837,1381.488Z" transform="translate(-2327.933 -1230.217)" fill="#3c8f7c"/>
      <path id="Path_579" data-name="Path 579" d="M2728.4,1564.124a3.842,3.842,0,0,0-1.336-.954,2.924,2.924,0,0,0-1.44-.162,3.148,3.148,0,0,1,1.471-.677,3.08,3.08,0,0,1,2.343.469c.812.643.807,1.633.371,1.788A1.7,1.7,0,0,1,2728.4,1564.124Z" transform="translate(-2418.31 -1390.739)" fill="#3c8f7c"/>
      <path id="Path_580" data-name="Path 580" d="M2726.389,1532.563a3.8,3.8,0,0,1,.067,1.642,2.934,2.934,0,0,1-.647,1.3,3.261,3.261,0,0,0,2.248-3.1c-.1-1.032-.927-1.567-1.291-1.281A1.728,1.728,0,0,0,2726.389,1532.563Z" transform="translate(-2418.471 -1363.234)" fill="#3c8f7c"/>
      <path id="Path_581" data-name="Path 581" d="M2643.307,1721.946a5.957,5.957,0,0,1,.21,2.558,4.56,4.56,0,0,1-.927,2.07,5.092,5.092,0,0,0,3.308-4.981c-.217-1.606-1.55-2.384-2.1-1.917A2.7,2.7,0,0,0,2643.307,1721.946Z" transform="translate(-2345.171 -1529.262)" fill="#3c8f7c"/>
      <path id="Path_582" data-name="Path 582" d="M2575.479,1746.307a5.961,5.961,0,0,1,.21,2.558,4.554,4.554,0,0,1-.927,2.072,5.1,5.1,0,0,0,3.309-4.982c-.218-1.6-1.55-2.384-2.1-1.917A2.7,2.7,0,0,0,2575.479,1746.307Z" transform="translate(-2285.427 -1550.719)" fill="#3c8f7c"/>
      <path id="Path_583" data-name="Path 583" d="M2506.567,1777.127a5.929,5.929,0,0,1,.211,2.558,4.565,4.565,0,0,1-.927,2.072,5.094,5.094,0,0,0,3.309-4.982c-.218-1.6-1.55-2.384-2.1-1.917A2.7,2.7,0,0,0,2506.567,1777.127Z" transform="translate(-2224.73 -1577.865)" fill="#3c8f7c"/>
      <path id="Path_584" data-name="Path 584" d="M2645.923,1779.465a5.469,5.469,0,0,0-1.269-2,4.219,4.219,0,0,0-1.834-1.007,4.538,4.538,0,0,1,2.335-.1,4.474,4.474,0,0,1,2.875,1.916c.732,1.311.186,2.622-.477,2.588S2646.326,1780.128,2645.923,1779.465Z" transform="translate(-2345.375 -1579.202)" fill="#3c8f7c"/>
      <path id="Path_585" data-name="Path 585" d="M2575.382,1804.52a5.5,5.5,0,0,0-1.268-2,4.22,4.22,0,0,0-1.835-1.007,4.543,4.543,0,0,1,2.335-.1,4.463,4.463,0,0,1,2.874,1.915c.732,1.3.186,2.622-.477,2.587C2576.339,1805.9,2575.783,1805.182,2575.382,1804.52Z" transform="translate(-2283.241 -1601.271)" fill="#3c8f7c"/>
      <path id="Path_586" data-name="Path 586" d="M2705.26,1763.812a3.521,3.521,0,0,0-1.06-1.089,2.721,2.721,0,0,0-1.285-.39,2.918,2.918,0,0,1,1.453-.371,2.862,2.862,0,0,1,2.057.823c.632.722.463,1.623.04,1.688S2705.6,1764.175,2705.26,1763.812Z" transform="translate(-2398.307 -1566.623)" fill="#3c8f7c"/>
      <path id="Path_587" data-name="Path 587" d="M2705.368,1735.195a3.431,3.431,0,0,1-.336,1.485,2.717,2.717,0,0,1-.892,1.006,2.909,2.909,0,0,0,1.43-.448,2.872,2.872,0,0,0,1.324-1.78c.161-.954-.453-1.627-.847-1.459S2705.468,1734.707,2705.368,1735.195Z" transform="translate(-2399.386 -1541.972)" fill="#3c8f7c"/>
      <path id="Path_588" data-name="Path 588" d="M2308.907,728.919a.783.783,0,0,0,.79-.954c-.2-.741-.384-1.486-.574-2.23-.42-1.644-.488-1.695-.372-1.833.275-.331.938.054,1.169.219a9.338,9.338,0,0,0,1.52,1.122c1.14.5,2.265-.147,2.085-1.449-.169-1.192-.409-2.384-.655-3.576,1.192.637,2.366,1.311,3.565,1.929a.534.534,0,0,0,.793-.553l-.628-5.177c-.032-.265-.327-1.48-.061-1.616.238-.119,1.039.378,1.23.466,1.056.489,1.431.647,4.905,2.159a.625.625,0,0,0,.8-.732c-1.469-4.264-.934-4.452-1.684-5.211a.3.3,0,0,0-.492.107c-.238.5-.259.641.189,2.6q.175.76.386,1.509c-4.179-1.915-5.187-2.5-6.069-1.695-.611.558-.468.8.261,6.675-1.215-.733-2.467-1.387-3.715-2.072a.608.608,0,0,0-.909.64c.628,4.27.818,4.355.772,4.746,0,.011.211.131-.119,0-.564-.224-1.38-1.385-2.528-1.586a1.832,1.832,0,0,0-2.273,1.473c-.056.657.11.944.656,3.355a15.756,15.756,0,0,0-3.731.1,2.457,2.457,0,0,0-1.366.564.655.655,0,0,0,.238,1.1C2304.4,729.3,2305.261,728.47,2308.907,728.919Z" transform="translate(-2045.747 -641.273)" fill="#f7cc7f"/>
      <path id="Path_589" data-name="Path 589" d="M2428.535,952.629a19.48,19.48,0,0,1,.773-3.37c.07-.216.153-.633.414-.7.627-.17,1.149.975,3.052,2.026.826.455,2.493,1.471,3.235.4a7.1,7.1,0,0,0,.665-1.987c.141-.477.3-.954.449-1.43,3.027,1.917,2.782,2.054,3.628,1.95a.441.441,0,0,0,.348-.513c-.227-.807-.2-.586-3.992-3.042a.68.68,0,0,0-1.015.331c-.191.65-.894,3.635-1.038,3.988-.027-.033-.194-.05-.229-.062a11.227,11.227,0,0,1-3.476-2.193c-.9-.728-2.291-1.151-3,.067a13.6,13.6,0,0,0-.984,3.316c-1.82-1.243-3.633-2.5-5.46-3.73a.749.749,0,0,0-1.12.365c-.3,1.34-.648,2.665-1,3.989a12.714,12.714,0,0,1-2.811-2.681c-.586-.762-1.849,0-.238,1.822a12.23,12.23,0,0,0,3.08,2.647.754.754,0,0,0,1.124-.366c.391-1.3.723-2.622,1.03-3.944,1.83,1.216,3.671,2.412,5.5,3.628A.693.693,0,0,0,2428.535,952.629Z" transform="translate(-2145.539 -847.789)" fill="#f47458"/>
      <path id="Path_590" data-name="Path 590" d="M2414.831,1112.19a.752.752,0,0,0,.426.915,16.568,16.568,0,0,0,5.477,1.836c1.014.119,1.1-1.417.119-1.6a20.155,20.155,0,0,1-4.518-1.287,16.048,16.048,0,0,1,1.43-3.149.772.772,0,0,0-.365-1.136c-1.2-.323-5.794-1.4-5.847-1.367a.262.262,0,0,0,.032-.119c.055-.507.893-2.026,1.079-2.788.207-.849-.814-1.484-1.469-1.749-1.327-.539-3.135,0-4.308-.93-1.127-.892.909-2.471.344-4.347-.435-1.446-1.907-1.489-4.194-1.715a1.683,1.683,0,0,0-1.529.337.383.383,0,0,0-.086.442c.47.8,1.33.757,3.4,1.018.263.033.732.011.9.263.56.834-1.036,2.215-.581,3.91a3.33,3.33,0,0,0,2.879,2.146c.947.162,2.234-.033,3.064.572-.287.78-.6,1.559-.825,2.354a1.456,1.456,0,0,0,.867,1.936,24.028,24.028,0,0,0,2.958.775c.656.163,1.311.329,1.97.486A18.053,18.053,0,0,0,2414.831,1112.19Z" transform="translate(-2132.72 -978.916)" fill="#3cb4c5"/>
      <path id="Path_591" data-name="Path 591" d="M2115.524,631.507c-3.9-5.77-7.667-2.741-6.7-.544a1.5,1.5,0,0,0,2.348.658.615.615,0,0,0-.347-1.066c-.438.007-.4-.477.081-.528.646-.067,1.219.563,1.636.973.975.954,2.252,2.184,2.017,3.7-.358,2.25-3.233,3.886-6.118,1.653-4.161-3.218-1.646-10.847,3.721-10.64a7.368,7.368,0,0,1,6.494,4.861c.2.533.928.2.883-.294-.343-3.709-4.2-6.231-7.74-6.063a7.473,7.473,0,0,0-6.811,6.651c-.531,3.669,1.6,7.489,5.384,8.205C2114.518,639.851,2118.257,635.542,2115.524,631.507Z" transform="translate(-1871.576 -564.48)" fill="#3cb4c5"/>
      <path id="Path_592" data-name="Path 592" d="M2390.135,1292.341c-.667-.834-2.3-1.719-3.2-.74a1,1,0,0,0,.089,1.55c.56.393,1.208.222,1.51.921a1.333,1.333,0,0,1-.684,1.541c-1.508.982-3.768-.13-4.887-1.256a3.376,3.376,0,0,1,1.477-5.7,7.677,7.677,0,0,1,2.575-.041c.477.029.9-.614.5-.993-1.541-1.457-4.131-.946-5.665.276a5.4,5.4,0,0,0-1.7,5.568,6.94,6.94,0,0,0,4.832,4.42C2389.406,1299.141,2392.3,1295.061,2390.135,1292.341Z" transform="translate(-2113.842 -1148.04)" fill="#3c8f7c"/>
      <path id="Path_593" data-name="Path 593" d="M548.316,927.493a17.273,17.273,0,0,0-1.559-8.285,6.959,6.959,0,0,0-6.215-3.568c-7.77-.011-8.758,10.335-13.707,14.326-1.511,1.219-3.2,2.212-4.631,3.528-5.281,4.856-2.9,13.844,1.949,18.1,3.366,2.955,8.653,4.633,12.8,2.323a13.058,13.058,0,0,0,4.979-5.4,74.329,74.329,0,0,0,3.916-10.033A37.686,37.686,0,0,0,548.316,927.493Z" transform="translate(-474.889 -821.179)" fill="#0e2e35"/>
      <path id="Path_594" data-name="Path 594" d="M482.948,789.274s-5.707-10.264-7.1-12.446-5.006-10.847-5.135-11.193,2.491-4.445,1.907-4.585-1.228,2.163-1.852,1.894-2.447-5.821-2.8-5.546c-.665.515.982,3.44.628,3.625s-1.43-3.218-2.126-3.119,1.325,3.119,1.13,3.386-2.293-2.578-2.672-1.971c-.206.329,1.93,2.483,1.519,2.684s-2.309-1.192-2.51-.788,1.757.954,2.342,2.026,1.583,1.549,2,3.55,1.033,9.245,3.154,12.857,6.786,11.612,6.786,11.612Z" transform="translate(-426.186 -681.789)" fill="#f79c8d"/>
      <path id="Path_595" data-name="Path 595" d="M763.827,1203.241l-8.874-6.794s-.893-6.334-2.085-11.958c-1.5.424-2.849,1.6-4.348,2.014l2.254,12.588,11.63,6.024,3.285,4.236.747-4.349Z" transform="translate(-676.864 -1057.984)" fill="#f48c7f"/>
      <path id="Path_596" data-name="Path 596" d="M736,1078.138c-2.428-7.39-5.142-7.073-5.142-7.073l2.1,15.532c1.5-.411,3.457-1.327,4.948-1.751A67.3,67.3,0,0,0,736,1078.138Z" transform="translate(-661.309 -958.077)" fill="#f7cc7f"/>
      <path id="Path_597" data-name="Path 597" d="M536.817,1781.91s-.547,3.814-1.489,5.05a9.76,9.76,0,0,0-1.273,1.684,4.98,4.98,0,0,0,.172,3.85c.224.49-.016.489.493.647a3.119,3.119,0,0,0,3.75-1.771,9.048,9.048,0,0,0,.737-3.254,11.841,11.841,0,0,1,1.235-5.23Z" transform="translate(-487.681 -1584.195)" fill="#f7a491"/>
      <path id="Path_598" data-name="Path 598" d="M693.2,1796.56a36.232,36.232,0,0,1,.064,5.706c-.148.749-.966,2.292-.6,3a1.866,1.866,0,0,0,.8.882l9.726.157c.53.008.18-.334-.247-.65a19.584,19.584,0,0,0-3.5-1.946c-.145-.071-.676-.41-.868-.527a6.753,6.753,0,0,1-1.391-1.236c-.7-.782-.759-4.575-.759-4.575Z" transform="translate(-627.586 -1597.099)" fill="#f7a491"/>
      <path id="Path_599" data-name="Path 599" d="M692.941,1308.325s1.224,6.991.421,11.575-4.665,47.071-4.665,47.071l-4.291.239s-.9-17.748-.738-20.217a38.549,38.549,0,0,1,1.43-6.6l-.428-14.329,5.414-18.825Z" transform="translate(-619.725 -1166.103)" fill="#d969d1"/>
      <path id="Path_600" data-name="Path 600" d="M567.143,1292.276s-3.377,5.112-4.181,9.344.6,17.234-.954,22.779c-.834,3-4.011,7.635-4.494,11.514s-2.374,14.039-2.374,14.039l4.291.855,9.963-25.373,7.816-22.933,2-11.811Z" transform="translate(-506.534 -1151.526)" fill="#d49cd0"/>
      <path id="Path_601" data-name="Path 601" d="M630.149,1059.889s-4.472-.287-6.241,1.652,3.925,17.283,4.247,19.748-1.64,9.03-1.64,9.03,10.5,2.126,13.507.129c0,0,.322-17.748,0-19.511s-3-8.939-3.646-9.638S630.149,1059.889,630.149,1059.889Z" transform="translate(-566.806 -948.221)" fill="#fae0b2"/>
      <path id="Path_602" data-name="Path 602" d="M679.148,1008.809s-.023.132-.064.358a34.261,34.261,0,0,1-1.486,5.655c-.627,1.192,2.146,4.992,4.815,4.529.794-.138-.672-3.493-.6-3.848.136-.679.318-1.608.505-2.559.1-.536.212-1.081.312-1.592.286-1.453.518-2.641.518-2.641Z" transform="translate(-614.316 -903.156)" fill="#f7a491"/>
      <path id="Path_603" data-name="Path 603" d="M689.849,1009.158c.042-.225.064-.358.064-.358l4-.1s-.238,1.192-.518,2.641c-.1.509-.205,1.05-.311,1.584a3.725,3.725,0,0,1-1.907-.963,5.083,5.083,0,0,1-1.446-2.163C689.776,1009.545,689.818,1009.332,689.849,1009.158Z" transform="translate(-625.082 -903.147)" fill="#f47458"/>
      <path id="Path_604" data-name="Path 604" d="M681.467,932.76a3.587,3.587,0,0,0-3.066,1.318c-1.176,1.538-2.455,6.29.477,8.873s5.84-.341,6.266-3.441S685.743,932.648,681.467,932.76Z" transform="translate(-613.943 -836.249)" fill="#f7a491"/>
      <path id="Path_605" data-name="Path 605" d="M740.139,976.565c-.35.685-.938,1.064-1.311.848s-.394-.954-.044-1.633.938-1.064,1.311-.847S740.49,975.881,740.139,976.565Z" transform="translate(-668.069 -873.351)" fill="#f7a491"/>
      <path id="Path_606" data-name="Path 606" d="M668.638,928.226s-2.517,4.52-4.32,4.728-2.038,2.61-2.038,2.61.645-5.534,2.428-6.6A6.593,6.593,0,0,1,668.638,928.226Z" transform="translate(-600.904 -832.223)" fill="#0e2e35"/>
      <path id="Path_607" data-name="Path 607" d="M536.318,1840.285a4.783,4.783,0,0,1-4.7-1.975,5.194,5.194,0,0,0-.447,3.862c.385.844,1.509.82,2.395.854a2.309,2.309,0,0,0,2.124-1.311A7.853,7.853,0,0,0,536.318,1840.285Z" transform="translate(-485.236 -1633.873)" fill="#090909"/>
      <path id="Path_608" data-name="Path 608" d="M698.451,1850.468a8.767,8.767,0,0,1-5.538-.218,4.51,4.51,0,0,0-.445,2.328c.238.693.572.849.869.857,2.351.062,8.607.146,10.4.169a.294.294,0,0,0,.228-.484C703.519,1852.587,698.643,1850.586,698.451,1850.468Z" transform="translate(-627.446 -1644.39)" fill="#090909"/>
      <path id="Path_609" data-name="Path 609" d="M669.382,968.359c.147.8-.148,1.539-.658,1.644s-1.042-.46-1.192-1.262.148-1.539.658-1.644S669.237,967.551,669.382,968.359Z" transform="translate(-605.495 -866.491)" fill="#f7a491"/>
      <path id="Path_610" data-name="Path 610" d="M577.219,997s6.317,6.827,7.25,9.578-.914,6.687-3.474,6.86-8.255-12.117-8.255-12.117Z" transform="translate(-522.036 -892.841)" fill="#f7cc7f"/>
      <rect id="Rectangle_126" data-name="Rectangle 126" width="87.516" height="122.846" rx="37.79" transform="translate(161.648 85.518)" fill="url(#radial-gradient)"/>
      <rect id="Rectangle_127" data-name="Rectangle 127" width="72.581" height="18.741" transform="translate(169.528 95.622)" fill="#c53c8e"/>
      <rect id="Rectangle_128" data-name="Rectangle 128" width="20.826" height="6.751" rx="2.91" transform="translate(169.528 119.707)" fill="#f47458"/>
      <rect id="Rectangle_129" data-name="Rectangle 129" width="20.826" height="6.751" rx="2.91" transform="translate(195.405 119.707)" fill="#f47458"/>
      <rect id="Rectangle_130" data-name="Rectangle 130" width="20.826" height="6.751" rx="2.91" transform="translate(221.283 119.707)" fill="#f47458"/>
      <rect id="Rectangle_131" data-name="Rectangle 131" width="16.117" height="15.135" rx="6.51" transform="translate(169.528 131.805)" fill="#f47458"/>
      <rect id="Rectangle_132" data-name="Rectangle 132" width="16.117" height="15.135" rx="6.51" transform="translate(188.349 131.805)" fill="#d594d0"/>
      <rect id="Rectangle_133" data-name="Rectangle 133" width="16.117" height="15.135" rx="6.51" transform="translate(207.171 131.805)" fill="#d594d0"/>
      <rect id="Rectangle_134" data-name="Rectangle 134" width="16.117" height="15.135" rx="6.51" transform="translate(169.528 150.464)" fill="#f47458"/>
      <rect id="Rectangle_135" data-name="Rectangle 135" width="16.117" height="15.135" rx="6.51" transform="translate(188.349 150.464)" fill="#d594d0"/>
      <rect id="Rectangle_136" data-name="Rectangle 136" width="16.117" height="15.135" rx="6.51" transform="translate(207.171 150.464)" fill="#d594d0"/>
      <path id="Path_612" data-name="Path 612" d="M2056.189,1228.94h-9.547a3.289,3.289,0,0,0-3.283,3.294v27.206a3.289,3.289,0,0,0,3.283,3.294h9.547a3.289,3.289,0,0,0,3.282-3.294v-27.206A3.289,3.289,0,0,0,2056.189,1228.94Z" transform="translate(-1817.367 -1097.136)" fill="#d594d0"/>
      <rect id="Rectangle_137" data-name="Rectangle 137" width="16.117" height="15.135" rx="6.51" transform="translate(169.528 169.124)" fill="#f47458"/>
      <rect id="Rectangle_138" data-name="Rectangle 138" width="16.117" height="15.135" rx="6.51" transform="translate(188.349 169.124)" fill="#d594d0"/>
      <rect id="Rectangle_139" data-name="Rectangle 139" width="16.117" height="15.135" rx="6.51" transform="translate(207.171 169.124)" fill="#d594d0"/>
      <rect id="Rectangle_140" data-name="Rectangle 140" width="16.117" height="15.135" rx="6.51" transform="translate(225.991 169.124)" fill="#d594d0"/>
      <rect id="Rectangle_141" data-name="Rectangle 141" width="16.117" height="15.135" rx="6.51" transform="translate(169.528 187.782)" fill="#f47458"/>
      <rect id="Rectangle_142" data-name="Rectangle 142" width="16.117" height="15.135" rx="6.51" transform="translate(188.349 187.782)" fill="#d594d0"/>
      <rect id="Rectangle_143" data-name="Rectangle 143" width="16.117" height="15.135" rx="6.51" transform="translate(207.171 187.782)" fill="#d594d0"/>
      <rect id="Rectangle_144" data-name="Rectangle 144" width="16.117" height="15.135" rx="6.51" transform="translate(225.991 187.782)" fill="#e87b50"/>
      <path id="Path_613" data-name="Path 613" d="M1620.6,1572.16v.765l-3.721,7.81h-1.192l3.708-7.586v-.026h-4.181v-.963Z" transform="translate(-1440.25 -1399.446)" fill="#fff"/>
      <path id="Path_614" data-name="Path 614" d="M1771.48,1577.484a2.45,2.45,0,0,1,1.7-2.3l-.013-.039a2.128,2.128,0,0,1-1.354-1.926,2.4,2.4,0,0,1,2.642-2.283,2.21,2.21,0,0,1,2.485,2.111,2.183,2.183,0,0,1-1.406,2.006v.039a2.377,2.377,0,0,1,1.722,2.216,2.635,2.635,0,0,1-2.906,2.494C1772.559,1579.805,1771.48,1578.736,1771.48,1577.484Zm4.6-.052c0-1.043-.724-1.55-1.88-1.874a1.864,1.864,0,0,0-1.539,1.768,1.583,1.583,0,0,0,1.709,1.637A1.549,1.549,0,0,0,1776.082,1577.431Zm-3.181-4.291c0,.857.644,1.318,1.629,1.583a1.688,1.688,0,0,0,1.3-1.557,1.33,1.33,0,0,0-1.446-1.4,1.366,1.366,0,0,0-1.485,1.376Z" transform="translate(-1577.894 -1398.371)" fill="#fff"/>
      <path id="Path_615" data-name="Path 615" d="M1777.149,1729.93c0,2.916-1.073,4.529-2.972,4.529-1.669,0-2.8-1.57-2.827-4.41,0-2.875,1.236-4.459,2.971-4.459C1776.125,1725.586,1777.149,1727.2,1777.149,1729.93Zm-4.642.131c0,2.23.684,3.5,1.736,3.5,1.184,0,1.749-1.385,1.749-3.576,0-2.111-.539-3.5-1.735-3.5-1.01,0-1.746,1.239-1.746,3.573Z" transform="translate(-1577.779 -1534.588)" fill="#fff"/>
      <path id="Path_616" data-name="Path 616" d="M1932.813,1578.851a4.83,4.83,0,0,0,.933-.039,3.219,3.219,0,0,0,1.788-.834,3.763,3.763,0,0,0,1.13-2.281h-.039a2.565,2.565,0,0,1-4.535-1.7,2.935,2.935,0,0,1,2.918-3.048c1.749,0,2.827,1.43,2.827,3.615a5.435,5.435,0,0,1-1.472,4.024,4.276,4.276,0,0,1-2.485,1.148,5.426,5.426,0,0,1-1.066.066Zm.421-4.933a1.645,1.645,0,0,0,1.644,1.82,1.911,1.911,0,0,0,1.683-.9.767.767,0,0,0,.1-.422c0-1.464-.539-2.585-1.749-2.585C1933.931,1571.833,1933.234,1572.7,1933.234,1573.918Z" transform="translate(-1719.36 -1398.38)" fill="#fff"/>
      <path id="Path_617" data-name="Path 617" d="M1614.51,1421.125v-2.335h-3.97v-.765l3.814-5.475h1.247v5.33h1.192v.909H1615.6v2.335Zm0-3.245v-2.861c0-.448.013-.9.039-1.346h-.039c-.262.5-.477.87-.709,1.266l-2.091,2.908v.027Z" transform="translate(-1436.137 -1258.86)" fill="#fff"/>
      <path id="Path_618" data-name="Path 618" d="M1777.171,1413.544h-3.26l-.329,2.2a4.6,4.6,0,0,1,.7-.052,3.6,3.6,0,0,1,1.84.462,2.446,2.446,0,0,1,1.223,2.2,2.969,2.969,0,0,1-3.182,2.929,4.165,4.165,0,0,1-2.13-.528l.29-.883a3.821,3.821,0,0,0,1.827.477,1.891,1.891,0,0,0,2.026-1.859c-.013-1.108-.75-1.9-2.459-1.9a8.854,8.854,0,0,0-1.182.092l.552-4.116h4.088Z" transform="translate(-1578.378 -1258.878)" fill="#fff"/>
      <path id="Path_619" data-name="Path 619" d="M1936.343,1412.39a4.123,4.123,0,0,0-.868.054,3.479,3.479,0,0,0-2.971,3.047h.039a2.6,2.6,0,0,1,4.641,1.782,2.863,2.863,0,0,1-2.84,3.02c-1.827,0-3.024-1.43-3.024-3.655a5.4,5.4,0,0,1,1.447-3.865,4.648,4.648,0,0,1,2.734-1.266,5.443,5.443,0,0,1,.842-.067Zm-.329,4.948a1.74,1.74,0,0,0-1.762-1.966,1.907,1.907,0,0,0-1.657,1.055,1,1,0,0,0-.131.515c.026,1.411.67,2.453,1.88,2.453C1935.344,1419.395,1936.014,1418.564,1936.014,1417.338Z" transform="translate(-1718.682 -1257.883)" fill="#fff"/>
      <path id="Path_620" data-name="Path 620" d="M1622.1,1260.672h-.026l-1.486.8-.223-.884,1.866-1h.986v8.575H1622.1Z" transform="translate(-1444.787 -1124.132)" fill="#fff"/>
      <path id="Path_621" data-name="Path 621" d="M1772.37,1267.116v-.715l.907-.884c2.182-2.084,3.168-3.192,3.181-4.485a1.523,1.523,0,0,0-1.7-1.669,2.909,2.909,0,0,0-1.814.725l-.368-.818a3.738,3.738,0,0,1,2.419-.87,2.413,2.413,0,0,1,2.622,2.492c0,1.584-1.144,2.861-2.945,4.6l-.684.633v.026h3.839v.963Z" transform="translate(-1578.678 -1123.083)" fill="#fff"/>
      <path id="Path_622" data-name="Path 622" d="M1932.516,1265.767a3.861,3.861,0,0,0,1.894.54c1.485,0,1.945-.953,1.932-1.661-.013-1.2-1.091-1.715-2.208-1.715h-.646v-.871h.644c.842,0,1.907-.435,1.907-1.451,0-.685-.435-1.293-1.5-1.293a3.134,3.134,0,0,0-1.709.567l-.3-.844a4.039,4.039,0,0,1,2.235-.659c1.683,0,2.446,1,2.446,2.044a2.127,2.127,0,0,1-1.577,2.018v.028a2.232,2.232,0,0,1,1.907,2.2c0,1.372-1.065,2.572-3.116,2.572a4.344,4.344,0,0,1-2.222-.58Z" transform="translate(-1719.457 -1123.067)" fill="#fff"/>
      <ellipse id="Ellipse_14" data-name="Ellipse 14" cx="1.031" cy="1.035" rx="1.031" ry="1.035" transform="translate(176.556 197.554)" fill="#fff"/>
      <path id="Path_623" data-name="Path 623" d="M1924.515,1211.924h-5.426v-5.444h-1.395v5.444h-5.424v1.4h5.424v5.443h1.395v-5.443h5.426Z" transform="translate(-1684.342 -1062.675)" fill="#fff"/>
      <path id="Path_624" data-name="Path 624" d="M1782.652,1617.894l-2.873-2.881,2.873-2.882-.739-.741-2.871,2.882-2.872-2.882-.739.741,2.872,2.882-2.872,2.881.739.741,2.872-2.882,2.871,2.882Z" transform="translate(-1563.812 -1419.323)" fill="#fff"/>
      <rect id="Rectangle_145" data-name="Rectangle 145" width="9.085" height="1.396" transform="translate(229.172 176.393)" fill="#fff"/>
      <rect id="Rectangle_146" data-name="Rectangle 146" width="9.085" height="1.396" transform="translate(229.507 192.528)" fill="#fff"/>
      <rect id="Rectangle_147" data-name="Rectangle 147" width="9.085" height="1.396" transform="translate(229.507 196.043)" fill="#fff"/>
      <path id="Path_625" data-name="Path 625" d="M950.063,266.6h0l-.024-.008c-.223-.081-.449-.153-.679-.218-.079-.023-.156-.047-.238-.068s-.167-.041-.252-.061l-.255-.06c-.081-.018-.162-.033-.238-.049s-.182-.033-.275-.049l-.238-.037c-.1-.014-.2-.026-.3-.038l-.219-.024c-.119-.012-.23-.019-.346-.026l-.182-.013c-.178-.008-.358-.013-.536-.013h-82.44q-.287,0-.572.014a10.861,10.861,0,0,0-1.122.119c-.184.027-.366.061-.547.1a11.149,11.149,0,0,0-8.82,9.787c-.037.375-.057.756-.057,1.141V446.152a11.156,11.156,0,0,0,7.334,10.489h0l.057.019c.212.076.428.144.645.207.079.023.157.046.238.067l.251.062.255.06.244.049.275.049.238.037c.1.014.2.026.3.038l.219.024c.119.011.23.019.346.026.061,0,.119.009.182.012.178.008.358.014.536.014h82.439a11.116,11.116,0,0,0,11.06-10.011c.037-.375.057-.756.057-1.141V277.094A11.157,11.157,0,0,0,950.063,266.6Z" transform="translate(-768.644 -248.919)" fill="url(#radial-gradient)"/>
      <rect id="Rectangle_148" data-name="Rectangle 148" width="93.895" height="160.962" transform="translate(89.468 32.224)" fill="#f3fcff"/>
      <rect id="Rectangle_149" data-name="Rectangle 149" width="40.179" height="2.017" rx="0.87" transform="translate(116.402 25.149)" fill="#fff"/>
      <ellipse id="Ellipse_15" data-name="Ellipse 15" cx="4.612" cy="4.627" rx="4.612" ry="4.627" transform="translate(131.75 196.313)" fill="#daeef7" opacity="0.3"/>
      <rect id="Rectangle_150" data-name="Rectangle 150" width="93.895" height="6.754" transform="translate(89.468 186.432)" fill="#3cb4c5" opacity="0.2"/>
      <rect id="Rectangle_151" data-name="Rectangle 151" width="93.895" height="8.541" transform="translate(89.468 32.224)" fill="#3cb4c5" opacity="0.2"/>
      <path id="Path_626" data-name="Path 626" d="M416.5,426.51H334.95a5.109,5.109,0,0,0-5.1,5.118v33.766a5.109,5.109,0,0,0,5.1,5.117h64.2c2.6,3.638,7.31,10.153,7.725,10.153.39,0-.358-6.153-.888-10.153H416.5a5.109,5.109,0,0,0,5.1-5.117V431.628A5.109,5.109,0,0,0,416.5,426.51Z" transform="translate(-308.097 -390.35)" fill="#daeef7" opacity="0.3"/>
      <path id="Path_627" data-name="Path 627" d="M388.254,353H306.709a5.107,5.107,0,0,0-5.1,5.125v33.762a5.109,5.109,0,0,0,5.1,5.118h64.2c2.6,3.638,7.309,10.153,7.725,10.153.389,0-.358-6.154-.889-10.153h10.508a5.109,5.109,0,0,0,5.1-5.118V358.125a5.107,5.107,0,0,0-5.1-5.125Z" transform="translate(-283.223 -325.602)" fill="#44c6ef"/>
      <rect id="Rectangle_152" data-name="Rectangle 152" width="40.205" height="2.229" rx="0.96" transform="translate(26.819 38.349)" fill="#fff"/>
      <rect id="Rectangle_153" data-name="Rectangle 153" width="17.32" height="2.229" rx="0.96" transform="translate(26.819 44.233)" fill="#fff"/>
      <rect id="Rectangle_154" data-name="Rectangle 154" width="53.903" height="2.229" rx="0.96" transform="translate(46.091 44.233)" fill="#fff"/>
      <rect id="Rectangle_155" data-name="Rectangle 155" width="29.024" height="2.229" rx="0.96" transform="translate(71.134 38.349)" fill="#fff"/>
      <rect id="Rectangle_156" data-name="Rectangle 156" width="73.339" height="2.229" rx="0.96" transform="translate(26.819 55.763)" fill="#fff"/>
      <rect id="Rectangle_157" data-name="Rectangle 157" width="37.887" height="2.229" rx="0.96" transform="translate(26.819 50.115)" fill="#fff"/>
      <rect id="Rectangle_158" data-name="Rectangle 158" width="33.251" height="2.229" rx="0.96" transform="translate(66.906 50.115)" fill="#fff"/>
      <rect id="Rectangle_159" data-name="Rectangle 159" width="25.065" height="1.992" rx="0.86" transform="translate(196.894 17.775) rotate(180)" fill="#fff"/>
      <path id="Path_628" data-name="Path 628" d="M1493.551,208.53H1566.4a4.564,4.564,0,0,1,4.557,4.572v30.169a4.564,4.564,0,0,1-4.557,4.571h-57.355c-2.322,3.25-6.531,9.071-6.9,9.071-.347,0,.322-5.5.794-9.071h-9.388a4.564,4.564,0,0,1-4.551-4.571V213.1A4.564,4.564,0,0,1,1493.551,208.53Z" transform="translate(-1329.084 -198.352)" fill="#daeef7" opacity="0.3"/>
      <path id="Path_629" data-name="Path 629" d="M1518.747,142.88H1591.6a4.565,4.565,0,0,1,4.557,4.572v30.167a4.564,4.564,0,0,1-4.557,4.571h-57.356c-2.321,3.25-6.53,9.071-6.9,9.071-.348,0,.322-5.5.794-9.071h-9.388a4.564,4.564,0,0,1-4.557-4.571V147.452A4.564,4.564,0,0,1,1518.747,142.88Z" transform="translate(-1351.271 -140.527)" fill="#44c6ef"/>
      <rect id="Rectangle_160" data-name="Rectangle 160" width="22.273" height="1.992" rx="0.86" transform="translate(235.533 14.127) rotate(180)" fill="#fff"/>
      <rect id="Rectangle_161" data-name="Rectangle 161" width="15.045" height="1.992" rx="0.86" transform="translate(235.533 20.631) rotate(180)" fill="#fff"/>
      <rect id="Rectangle_162" data-name="Rectangle 162" width="18.513" height="1.992" rx="0.86" transform="translate(218.672 20.631) rotate(180)" fill="#fff"/>
      <rect id="Rectangle_163" data-name="Rectangle 163" width="25.875" height="1.992" rx="0.86" transform="translate(197.813 20.631) rotate(180)" fill="#fff"/>
      <rect id="Rectangle_164" data-name="Rectangle 164" width="37.355" height="1.992" rx="0.86" transform="translate(209.185 14.127) rotate(180)" fill="#fff"/>
      <rect id="Rectangle_165" data-name="Rectangle 165" width="63.703" height="1.992" rx="0.86" transform="translate(235.531 33.372) rotate(180)" fill="#fff"/>
      <rect id="Rectangle_166" data-name="Rectangle 166" width="32.909" height="1.992" rx="0.86" transform="translate(235.533 27.077) rotate(180)" fill="#fff"/>
      <rect id="Rectangle_167" data-name="Rectangle 167" width="29.162" height="1.992" rx="0.86" transform="translate(200.99 27.077) rotate(180)" fill="#fff"/>
      <path id="Path_630" data-name="Path 630" d="M978.932,905.44s-18.2,2.622-15.418,20.19c2.593,16.376,18.2,13.051,22.207,12.229S978.932,905.44,978.932,905.44Z" transform="translate(-865.978 -812.195)" fill="#f7cc7f"/>
      <path id="Path_631" data-name="Path 631" d="M989.817,1067.558c1.867-.381.523-7.436-1.446-14.868-6.7,1.311-14.164,2.78-20.5,4.03C971.1,1071.512,985.925,1068.356,989.817,1067.558Z" transform="translate(-870.069 -941.894)" fill="#e8ba70"/>
      <path id="Path_632" data-name="Path 632" d="M1182.87,1157.865s4,14.272,2.945,25.361c-.982,10.341.491,12.065,4.335,11.737s13.17-2.622,13.333-6.317-1.549-22.653-8.016-32.83S1182.87,1157.865,1182.87,1157.865Z" transform="translate(-1059.443 -1029.163)" fill="#d49cd0"/>
      <path id="Path_633" data-name="Path 633" d="M1189.092,1153a43.449,43.449,0,0,0-6.212,5.952s4,14.272,2.945,25.361c-.982,10.341.491,12.065,4.335,11.737a32.408,32.408,0,0,0,5.721-1.127C1197.412,1169.5,1190.855,1155.873,1189.092,1153Z" transform="translate(-1059.451 -1030.247)" fill="#d969d1"/>
      <path id="Path_634" data-name="Path 634" d="M1220.281,615.21s-30.182,21.976-39.937,28.623l-5.7,8.495,4.053,24.746,9.754,4.8,47.667,9.416-1.1-5.355-8.65-24.007-4.417-27.331-1.288-16.806Z" transform="translate(-1052.194 -556.558)" fill="#d49cd0"/>
      <path id="Path_635" data-name="Path 635" d="M1096.174,831.1l-1.157-7.166-48.236,11.748,1.728,10.561,9.754,4.8,47.667,9.417-1.1-5.355Z" transform="translate(-924.013 -725.723)" fill="#d969d1"/>
      <path id="Path_636" data-name="Path 636" d="M1100.088,840.992s-3.987,20.991,8.1,38.042a2.114,2.114,0,0,1-.8,2.565l-9,2.3s-4.172,1.477-7.689-4.515-9.735-19.451-6.053-34.306a6.726,6.726,0,0,1,5.807-4.761l6.544-1.231S1099.909,838.632,1100.088,840.992Z" transform="translate(-971.936 -753.718)" fill="#d625ca"/>
      <path id="Path_637" data-name="Path 637" d="M1535.115,573.348s7.852-5.787,12.4-5.663,9.079,6.155,12.024,11.079,10.674,24.253,11.41,37.308.614,31.64-5.767,33.851-14.233-.492-14.233-.492-10.307-8.863-16.317-36.441S1535.115,573.348,1535.115,573.348Z" transform="translate(-1367.027 -514.697)" fill="#d625ca"/>
      <path id="Path_638" data-name="Path 638" d="M1608.028,657.952s7.34-9.536,3.6-35.3c-5.889-40.558-20.74-46.692-20.74-46.692s-10.984,8.373-.481,47.563C1599.052,655.824,1608.028,657.952,1608.028,657.952Z" transform="translate(-1414.399 -521.987)" fill="#d969d1"/>
      <path id="Path_639" data-name="Path 639" d="M1594.48,835.742a149.66,149.66,0,0,0,3.514,16.493c.834,3.129,1.679,5.973,2.515,8.561,4.564-1.585,11.947-5.559,8.794-15.639C1606.381,835.816,1598.777,835.245,1594.48,835.742Z" transform="translate(-1421.991 -750.694)" fill="#f7cc7f"/>
      <path id="Path_640" data-name="Path 640" d="M1616.8,925.745c.834,3.129,1.679,5.973,2.515,8.56,4.5-1.564,11.742-5.451,8.918-15.226l-12.407,2.869Q1616.279,923.8,1616.8,925.745Z" transform="translate(-1440.796 -824.209)" fill="#e8ba70"/>
      <path id="Path_641" data-name="Path 641" d="M1119.079,1053.135a46.535,46.535,0,0,1-7.243-16.425l-15.946,3.02a54.737,54.737,0,0,0,5.706,13.753c3.517,5.992,7.689,4.515,7.689,4.515l9-2.3A2.113,2.113,0,0,0,1119.079,1053.135Z" transform="translate(-982.83 -927.818)" fill="#3c8f7c" opacity="0.3"/>
      <path id="Path_642" data-name="Path 642" d="M2580.4,411.548l-.073,7.906,5.006-4.716,15.791-10.727-12.888,2.812s-6.436,2.44-6.761,2.811A15.5,15.5,0,0,0,2580.4,411.548Z" transform="translate(-2290.334 -370.532)" fill="#dd513a"/>
      <path id="Path_643" data-name="Path 643" d="M2380.33,284.452l27.078-3.552-20.729,7.535Z" transform="translate(-2096.612 -247.419)" fill="#f47458"/>
      <path id="Path_644" data-name="Path 644" d="M2457.095,295.182l-7.8-4.845,18.859-9.437Z" transform="translate(-2157.353 -247.419)" fill="#f47458"/>
      <path id="Path_645" data-name="Path 645" d="M2292.824,547.83a17.241,17.241,0,0,1,.119-1.9,17.805,17.805,0,0,1,.3-1.756l.628.139c-.119.561-.22,1.131-.287,1.693a16.589,16.589,0,0,0-.119,1.832v.533l-.643.014C2292.824,548.2,2292.823,548.014,2292.824,547.83Zm1.765-7.659a24.374,24.374,0,0,1,2.067-3.664l.53.365a23.882,23.882,0,0,0-2.017,3.576Zm20.082-3.783c-.041-.018-.08-.038-.119-.058l.289-.576c.035.017.069.035.1.048a.333.333,0,0,0,.067.013,2.956,2.956,0,0,0,1.745-.441,2.731,2.731,0,0,0,.888-1.3l.608.211a3.4,3.4,0,0,1-1.1,1.6,3.563,3.563,0,0,1-2.216.572A.815.815,0,0,1,2314.671,536.388Zm-15.393-3.172a33.58,33.58,0,0,1,3.026-2.908l.415.492a32.724,32.724,0,0,0-2.964,2.854Zm12.233-1.505a7.936,7.936,0,0,1,0-1.907,9.456,9.456,0,0,1,.193-1.073l.626.151a8.621,8.621,0,0,0-.18,1,7.18,7.18,0,0,0,0,1.752,6.036,6.036,0,0,0,.272,1.18l-.608.209a6.632,6.632,0,0,1-.306-1.309Zm2.667-3.64-.086-.03.2-.613.093.031a6.445,6.445,0,0,1,3.337,2.548l-.541.347A5.837,5.837,0,0,0,2314.177,528.07Zm-8.2.133a14.9,14.9,0,0,1,2.6-.954c.523-.091,1.006-.156,1.474-.2l.058.642c-.45.042-.917.1-1.424.192a13.322,13.322,0,0,0-2.448.9Zm7.464-3.357a14.42,14.42,0,0,1,2.827-3.157l.41.5a13.738,13.738,0,0,0-2.7,3.017Z" transform="translate(-2037.094 -474.185)" fill="#6db1b5"/>
      <path id="Path_646" data-name="Path 646" d="M2520.186,498.99a12.369,12.369,0,0,1,1.968-.631l-.143-.629a13,13,0,0,0-2.07.663Z" transform="translate(-2237.142 -453.081)" fill="#6db1b5"/>
      <path id="Path_647" data-name="Path 647" d="M1909.959,1109.013l-.329.3a.4.4,0,0,1-.569-.014l-5.84-6.445a.4.4,0,0,1,.044-.565l.329-.3a.4.4,0,0,1,.569.014l5.84,6.446a.4.4,0,0,1-.044.565Z" transform="translate(-1693.847 -985.218)" fill="#13375b"/>
      <path id="Path_648" data-name="Path 648" d="M1939.518,1117.089c-.782-.638-6.82,2.026-6.744,2.948s-4.215,9.893-4.215,9.893l-7.415-5.932h0c-.066-.215-.769-2.521-.8-2.935-.036-.433-1.289-1.192-1.87-1.073s.5.844.569.979c.193.366-.553.5-.553.5s-2.146-1.18-2.188-1.874-.488-2.146-.954-1.844c-.238.157-.238,1.192-.162,1.678-.137-.555-.333-1.182-.522-1.246-.347-.119-.519.329-.455.547s.622,2.576.793,2.842,3.626,3.056,4.124,3.664c0,0,9.592,11,10.275,11.289.6.253,2.735-3.539,4.753-6.055S1941.958,1119.08,1939.518,1117.089Z" transform="translate(-1703.595 -998.531)" fill="#f7a491"/>
      <path id="Path_649" data-name="Path 649" d="M2283.21,1769.8s1.311,1.291,1.348,1.764.119,5.547-.422,6.021-2.118.809-1.61,1.342c.384.4,3.337.317,5.3.208.571-.031,1.288-4.607,1.514-5.28.329-.976,1.129-3.177.834-3.857a5.723,5.723,0,0,0-1.824-1.65,9.061,9.061,0,0,1-2.026-2.16Z" transform="translate(-2027.939 -1570.349)" fill="#f48c7f"/>
      <path id="Path_650" data-name="Path 650" d="M2137.83,1821.171s1.179,3.337,1.18,3.352c.088.531.434,1.839.434,2.321,0,1.808-8.13-1.536-6.309-2.337a1.927,1.927,0,0,0,.737-1.268,4.227,4.227,0,0,0-.684-2.138Z" transform="translate(-1896.207 -1618.714)" fill="#f7a491"/>
      <path id="Path_651" data-name="Path 651" d="M2051.282,1299.41s-.6,5.993-.6,6.079c0,9.7-1.915,28.633-1.549,30.455.888,4.446,10.452,27.125,10.452,27.125l5.168-.62-6.738-27.15,2.479-10.929,3.508-21.605Z" transform="translate(-1822.415 -1159.206)" fill="#355389"/>
      <path id="Path_652" data-name="Path 652" d="M2095.853,1310.982l.981,5.681,2.655,23.377,10.105,22.849s-1.421,3.324-3.519,3.792l-16.084-23.458L2080,1313.2l.35-6.675Z" transform="translate(-1849.64 -1165.478)" fill="#13375b"/>
      <path id="Path_653" data-name="Path 653" d="M2050.19,1063.755l7.167.734s.329-5.9.329-8.708c0-3.411-.29-7.807-.7-7.712a6.234,6.234,0,0,0-3.628,2.178C2050.159,1054.655,2050.19,1063.755,2050.19,1063.755Z" transform="translate(-1823.383 -937.822)" fill="#86b1f2"/>
      <path id="Path_654" data-name="Path 654" d="M2058.256,1053.49c-.15,1.041-2.906,29.322-2.906,29.322,13.051,6.324,20.252,1.126,20.252,1.126s-.427-19.861.084-22.565c.339-1.788.762-13.673-.393-14.005a28.8,28.8,0,0,0-5.035-1.073c-1.582-.164-7.724-.26-8.82.111A13.988,13.988,0,0,0,2058.256,1053.49Z" transform="translate(-1827.929 -936.134)" fill="#9bc1f9"/>
      <path id="Path_655" data-name="Path 655" d="M2284.392,1784s-3.037,8.582-4.227,9c-.316.111-1.831.39-2.117,1.062a2.929,2.929,0,0,0,0,.878h6.332s.8-3.781,1.118-5.442c0,0,1.676-4.06,1.49-4.428S2284.392,1784,2284.392,1784Z" transform="translate(-2024.049 -1586.036)" fill="#184655"/>
      <path id="Path_656" data-name="Path 656" d="M2093.351,1852.49l-.932-2.95a7.96,7.96,0,0,1-2.932.691c-.977-.143-2.887-.691-2.887-.691-3.9,1.289-7.1,1.907-6.518,2.95Z" transform="translate(-1849.653 -1643.764)" fill="#184655"/>
      <path id="Path_657" data-name="Path 657" d="M2035.293,1226.4a1.5,1.5,0,0,1-.2-.147c.231-2.771.189-5.455-.677-6.364l.408-.867c1,.78,1.482,2.851,1.294,6.212a5.485,5.485,0,0,1-.132.7C2035.7,1226.249,2035.434,1226.456,2035.293,1226.4Z" transform="translate(-1809.493 -1088.398)" fill="#f7a491"/>
      <path id="Path_658" data-name="Path 658" d="M2236.327,1131.98a.76.76,0,0,0,0-.182c-.192-1.958-1.813-18.406-2.086-19.1-.247-.632-7.515-11.063-7.515-11.063l-3.576,4.887,6.99,9.357c.157.6,2.679,11.7,2.679,11.7s.518,2.026.749,3.236c-.106.292-.21.568-.3.8a7.332,7.332,0,0,1-.753,1.214,7.976,7.976,0,0,0-.893,1.584c-.074.285-.208.878-.283,1.237s-.179.775-.2.969a1.893,1.893,0,0,1-.225.522.312.312,0,0,0,.368.451c.254-.085.451-.414.573-.62.343-.58.527-1.639.613-1.583s.387,1.854.435,2.056a22.25,22.25,0,0,0,.613,2.672c.2.381.477.317.546.079.062-.206-.225-3.126-.225-3.126s-.036-.372.126-.256.429,2.768.542,3.155.371.6.589.282c.267-.379-.191-3.191-.191-3.191s-.051-.358.1-.321.338,2.292.456,2.488a.3.3,0,0,0,.553-.061,13.942,13.942,0,0,0-.263-2.891s.02-.2.119-.132.392,1.98.586,2.157a.2.2,0,0,0,.3,0c.358-.238-.19-2.066-.184-2.97a22.336,22.336,0,0,1-.288-3C2236.291,1132.251,2236.313,1132.085,2236.327,1131.98Z" transform="translate(-1975.728 -985)" fill="#f8a492"/>
      <path id="Path_659" data-name="Path 659" d="M2209.021,1068.5l-6.208,4.184a67.64,67.64,0,0,0-5.378-7.086c-2.354-2.33.857-9.47,2.373-9.066C2203.2,1057.432,2209.021,1068.5,2209.021,1068.5Z" transform="translate(-1952.341 -945.26)" fill="#9bc1f9"/>
      <path id="Path_660" data-name="Path 660" d="M2136.259,993.371l.929,6.142s-3.391,7.314-5.416,6.675c-1.7-.533-.653-7-.653-7s.925-3.474.647-5.214S2136.259,993.371,2136.259,993.371Z" transform="translate(-1894.386 -889.322)" fill="#f7a491"/>
      <path id="Path_661" data-name="Path 661" d="M2138.028,994c-.277-1.739,4.494-.6,4.494-.6l.077.51a2.853,2.853,0,0,1-.517.856,6.277,6.277,0,0,1-4.172,1.894A9.482,9.482,0,0,0,2138.028,994Z" transform="translate(-1900.648 -889.343)" fill="#f47458"/>
      <path id="Path_662" data-name="Path 662" d="M2122.979,909.038c.135-.049,1.081,7-.715,8.94s-5.292,2.573-6.547,1.047c-1.387-1.689-1.311-9.26,1.473-11.254S2122.979,909.038,2122.979,909.038Z" transform="translate(-1880.322 -813.678)" fill="#f7a491"/>
      <path id="Path_663" data-name="Path 663" d="M2125.624,880.557a7.748,7.748,0,0,1,4.068,2.328c.98.119,2.311.659,3.686,2.943a5.725,5.725,0,0,1-1.526,7.447,4.454,4.454,0,0,0-1.94,3.29l-.311-.912a5.126,5.126,0,0,1-.247-2.145,4.232,4.232,0,0,1,.318-1.291c.477-1.02-1.017-1.7-1.43-2.546-.322-.653-.337-2.145-.845-3.227l-.6-.825a3.843,3.843,0,0,0-2.763-.782C2122.663,885.145,2122.855,879.99,2125.624,880.557Z" transform="translate(-1887.693 -790.24)" fill="#184655"/>
      <path id="Path_664" data-name="Path 664" d="M2166.217,956.44c-.014.859.374,1.563.869,1.572s.907-.682.921-1.541-.374-1.56-.863-1.572S2166.231,955.581,2166.217,956.44Z" transform="translate(-1925.58 -855.758)" fill="#f7a491"/>
      <path id="Path_665" data-name="Path 665" d="M2121.766,983.451l-2.706-.141a1.185,1.185,0,0,0,1.192,1.131C2121.706,984.559,2121.766,983.451,2121.766,983.451Z" transform="translate(-1884.045 -880.783)" fill="#fff"/>
      <path id="Path_666" data-name="Path 666" d="M932.568,1522.233l1.323-.252-5.718-30.431-1.323.251Z" transform="translate(-816.378 -1313.767)" fill="#0e2e35"/>
      <path id="Path_667" data-name="Path 667" d="M839.331,1522.371H837.74l5.931-30.821,1.324.251Z" transform="translate(-737.889 -1313.767)" fill="#0e2e35"/>
      <path id="Path_668" data-name="Path 668" d="M686.028,1523.393l1.292.015-5.687-30.7-1.323.251Z" transform="translate(-599.224 -1314.788)" fill="#0e2e35"/>
      <path id="Path_669" data-name="Path 669" d="M754.729,1265.458c-5.245.563-12.022,1.157-18.833,12.754-7.44,12.669-3.523,31.595,2.349,36.854s25.052,11.752,41.175,2.026c0,0,9.736-5.891,4.739-15.668-7.688-15.046-6.6-18.184-10.04-24.077S765.852,1264.262,754.729,1265.458Z" transform="translate(-662.152 -1129.185)" fill="#fae0b2"/>
      <path id="Path_670" data-name="Path 670" d="M735.927,1285.8c4.648-7.912,9.28-10.7,13.421-11.853a34.922,34.922,0,0,0-4.85,6.57c-7.441,12.669-3.525,31.595,2.348,36.854,5.209,4.664,20.882,10.3,35.608,4.732a14.927,14.927,0,0,1-3,2.582c-16.123,9.722-35.3,3.228-41.175-2.026S728.486,1298.472,735.927,1285.8Z" transform="translate(-662.178 -1136.781)" fill="#f7cc7f"/>
      <path id="Path_671" data-name="Path 671" d="M897.487,1304.85l1.347,4.055-4.1-1.62Z" transform="translate(-788.086 -1149.32)" fill="#f79c8d"/>
      <path id="Path_672" data-name="Path 672" d="M1010.339,1326.77c.274.011,1.024.262,2.12,2.334,1.4,2.646,3.447,10.64,3.447,10.64l-6.109,2.276-.785-1.669-1.292-12.846S1010.263,1326.766,1010.339,1326.77Z" transform="translate(-905.169 -1183.305)" fill="#dd513a"/>
      <path id="Path_673" data-name="Path 673" d="M881.935,1317.1a37.142,37.142,0,0,1,8.074,1.153s1.474,12.667-1.327,22.289c-.627,2.155.518,8.932.518,8.932l-18.1-.238s2.145-16.383,1.336-19.029-.827-11.869-.827-11.869l4.067-.7A40.944,40.944,0,0,1,881.935,1317.1Z" transform="translate(-784.834 -1174.787)" fill="#f47458"/>
      <path id="Path_674" data-name="Path 674" d="M906.229,1786s.4,4.621,1.137,5.9-.039,3.457-.077,3.755-1.549.726-3.954.469-2.364-.811-2.169-1.707,1.472-2.048,1.549-2.9a22.257,22.257,0,0,0-.737-3.925Z" transform="translate(-811.243 -1587.797)" fill="#f7a491"/>
      <path id="Path_675" data-name="Path 675" d="M884.827,1554.627s12.495-.694,15.285,1-.5,5.16-.5,5.16-10.173,4.422-27.2,5.405c-4.032.238-4.38-10.515-3.626-11.4S884.827,1554.627,884.827,1554.627Z" transform="translate(-782.507 -1383.753)" fill="#a92fc7"/>
      <path id="Path_676" data-name="Path 676" d="M901.947,1842.089c-2.474-.264-2.168-1.479-1.969-2.4.119-.578.834-1.259,1.259-1.907a4.143,4.143,0,0,0,1.654.8c1.116.329,2.645-.323,3.62-.732a11.945,11.945,0,0,1,.331,3.192C906.8,1841.357,904.422,1842.352,901.947,1842.089Z" transform="translate(-810.155 -1633.406)" fill="#184655"/>
      <path id="Path_677" data-name="Path 677" d="M858.946,1564.513c.5,3.777,2.97,22.584,2.97,22.584l-5.736.715s-7.053-24.546-6.69-28.3,3-4.07,3-4.07S857.624,1554.513,858.946,1564.513Z" transform="translate(-765.788 -1384.7)" fill="url(#radial-gradient)"/>
      <path id="Path_678" data-name="Path 678" d="M852.806,1339.157c1.693-.635,2.52,14.614,2.749,20.891a74.088,74.088,0,0,0,9.521-.1c.613-.046,2.026-.562,2.631-.642a6.4,6.4,0,0,1,1.5-.07,28.16,28.16,0,0,1,3.5,1.577c.333.347,1.228,1.224,1.073,1.6s-1.722-1.056-1.722-1.056l-.769-.432c.954.935,2.781,2.165,2.517,2.613s-1.9-.812-3.074-1.669c1.006.908,2.255,2.535,1.968,2.788-.259.228-1.681-1.654-3.2-2.2-.564-.2-1.125.357-1.567.423a3.205,3.205,0,0,1-1.148.063l-1.645-.466c-.56.051-.575.383-1.139.5-.657.139-1.736.287-2.571.491-4.818,1.178-6.424,1.724-7.9,1.722C849.065,1365.208,848.806,1340.658,852.806,1339.157Z" transform="translate(-766.233 -1194.199)" fill="#f7a491"/>
      <path id="Path_679" data-name="Path 679" d="M845.815,1342.941c-.317-6.429-.271-14.353,3.337-15.706,1.422-.533,3.933,2.675,3.478,15.837A27.126,27.126,0,0,1,845.815,1342.941Z" transform="translate(-762.455 -1183.666)" fill="#dd513a"/>
      <path id="Path_680" data-name="Path 680" d="M825.029,1313.1h-.367l-5.522,13.571.38-.057Z" transform="translate(-721.506 -1156.587)" fill="#f79c8d"/>
      <path id="Path_681" data-name="Path 681" d="M1051.785,1819.14a3.127,3.127,0,0,0,.4,2.665c.9,1.061,4.62,2.1,5.109,2.677a1.61,1.61,0,0,1,.452,1.063l-10.451-.287.119-3.156.477-2.265Z" transform="translate(-940.023 -1616.988)" fill="#f7a491"/>
      <path id="Path_682" data-name="Path 682" d="M1048.465,1844.165s-2.686,1.086-3.982.443-1.259-.821-1.634-.582-.509,3.2-.509,3.2l11.751.346c.818-.019,1.231-.621.566-1.137a8.6,8.6,0,0,0-1.28-.762A36.849,36.849,0,0,0,1048.465,1844.165Z" transform="translate(-935.663 -1638.819)" fill="#184655"/>
      <path id="Path_683" data-name="Path 683" d="M1052.836,1559.484c.808-1.7,2.645-3.913,5.878-2.58,3.082,1.272,3.911,4.4,2.938,7.6s-7.377,22.008-7.6,24.594l-5.112.033s.928-14.892,1.156-18.492A34.854,34.854,0,0,1,1052.836,1559.484Z" transform="translate(-941.476 -1385.649)" fill="url(#radial-gradient)"/>
      <path id="Path_684" data-name="Path 684" d="M905.287,1436.23H888.2a1.114,1.114,0,0,0-1.031.695L881.9,1449.8h-9.426a.477.477,0,0,0-.477.477h0a.477.477,0,0,0,.477.477H899.3a1.872,1.872,0,0,0,1.708-1.11l5.3-11.843a1.118,1.118,0,0,0-1.014-1.569Z" transform="translate(-785.626 -1279.718)"/>
      <path id="Path_685" data-name="Path 685" d="M1060.381,1489.932a.941.941,0,1,1-.706-1.231A1.009,1.009,0,0,1,1060.381,1489.932Z" transform="translate(-949.922 -1325.92)" fill="#fff"/>
      <path id="Path_686" data-name="Path 686" d="M925.7,1177.627a12.889,12.889,0,0,1-1.511-.6,7.574,7.574,0,0,0-1.725-.65,4.156,4.156,0,0,0-3.5.932c-1.128,1.223-3.13.22-2.727,6.626.458,7.25,4.488,6.453,4.587,6.331s3.595-4.638,3.595-4.638,1.223,2.675,1.223,2.577S931.89,1179.712,925.7,1177.627Z" transform="translate(-824.547 -1050.786)" fill="#0e2e35"/>
      <path id="Path_687" data-name="Path 687" d="M939.751,1267.65l.348,2.59s.779,3.732-.224,4.452-4.265-4.558-4.265-4.558l.344-6.564Z" transform="translate(-841.654 -1127.638)" fill="#f7a491"/>
      <path id="Path_688" data-name="Path 688" d="M937.57,1265.7a7.43,7.43,0,0,0,4.2,4.149l-.294-2.2-3.8-4.08Z" transform="translate(-843.381 -1127.638)" fill="#f47458"/>
      <path id="Path_689" data-name="Path 689" d="M936.254,1203.314a3.453,3.453,0,0,1,3.978,3.494,26.175,26.175,0,0,1-.291,3.322c-.462,2.99-2.5,5.624-3.851,5.389s-4.743-2.814-4.146-7.071C932.314,1205.821,934.024,1203.674,936.254,1203.314Z" transform="translate(-838.364 -1074.526)" fill="#f7a491"/>
      <path id="Path_690" data-name="Path 690" d="M925.81,1240.868a1.005,1.005,0,1,1-.764-1.359A1.111,1.111,0,0,1,925.81,1240.868Z" transform="translate(-831.294 -1106.434)" fill="#f7a491"/>
      <path id="Path_691" data-name="Path 691" d="M930.095,1200.268s1.632.405,2.236-.644,2.77-3.314,5.521-2.374-2.421-2.282-2.641-2.282-2.861-.018-2.861-.018-2.036,1.669-2.11,1.858-.66,2.191-.66,2.191Z" transform="translate(-836.343 -1067.197)" fill="#0e2e35"/>
      <path id="Path_692" data-name="Path 692" d="M958.854,1276.29l2.968.567a1.321,1.321,0,0,1-1.6.906C958.623,1277.506,958.854,1276.29,958.854,1276.29Z" transform="translate(-862.118 -1138.842)" fill="#fff"/>
      <path id="Path_693" data-name="Path 693" d="M701.557,998.92l2.968.567a1.32,1.32,0,0,1-1.595.906C701.33,1000.135,701.557,998.92,701.557,998.92Z" transform="translate(-635.49 -894.533)" fill="#fff"/>
      <path id="Path_694" data-name="Path 694" d="M2469.833,1762.994a46.725,46.725,0,0,0-7.664,1.371,92.415,92.415,0,0,0-13.343,4.88c-2.135.931-4.284,1.849-6.378,2.869a22.341,22.341,0,0,0-2.861,1.566,30.042,30.042,0,0,0-3.337,2.741l1,.03a33.1,33.1,0,0,1,6.655-4.34c8.224-3.963,16.773-8.028,25.948-9.036a.041.041,0,0,0-.017-.081Z" transform="translate(-2163.427 -1567.533)" fill="#3c8f7c"/>
    </g>
  </g>
</svg>
